<svg width="32" height="32" viewBox="0 0 32 32" fill="none" xmlns="http://www.w3.org/2000/svg">
<rect x="1" y="23.6274" width="27.4286" height="4.57143" transform="rotate(-45 1 23.6274)" fill="#4f46e5"/>
<rect x="7.46484" y="23.6274" width="27.4286" height="4.57143" transform="rotate(-45 7.46484 23.6274)" fill="#46A2E5"/>
<path d="M21.7202 9.00874L21.7193 9.00784C21.4347 8.71947 21.0767 8.56528 20.6707 8.56528C20.2648 8.56528 19.9068 8.71946 19.6222 9.00784C19.3424 9.29135 19.1881 9.64309 19.1724 10.0412C19.1562 10.4531 19.3007 10.8208 19.59 11.1139L24.9135 16.5077L19.5578 21.9342C19.2733 22.2224 19.1237 22.582 19.1237 22.9872C19.1237 23.3924 19.2733 23.7521 19.5578 24.0403C19.8334 24.3195 20.1761 24.4821 20.5691 24.4987C20.9781 24.516 21.3377 24.3616 21.6226 24.0729L28.0659 17.5444C28.3461 17.2606 28.5 16.908 28.5 16.5077C28.5 16.1076 28.3462 15.7551 28.0662 15.4713C28.0661 15.4712 28.066 15.4711 28.0659 15.471L21.7202 9.00874L21.7202 9.00874ZM2.93408 17.5444L2.93497 17.5453L9.31295 23.975C9.31315 23.9752 9.31335 23.9754 9.31356 23.9756C9.59807 24.2636 9.95584 24.4175 10.3615 24.4175C10.7674 24.4175 11.1254 24.2634 11.41 23.975C11.6901 23.6911 11.8441 23.3385 11.8441 22.9383C11.8441 22.538 11.6901 22.1854 11.41 21.9016L6.08653 16.5077L11.4744 11.0486C11.7589 10.7604 11.9085 10.4008 11.9085 9.99559C11.9085 9.5904 11.7589 9.23076 11.4744 8.94256C11.1898 8.65418 10.8318 8.5 10.4259 8.5C10.02 8.5 9.66199 8.65418 9.37738 8.94256L2.93408 15.471C2.65394 15.7549 2.5 16.1075 2.5 16.5077C2.5 16.908 2.65394 17.2606 2.93408 17.5444Z" fill="black" stroke="black"/>
</svg>
