<svg width="187" height="100" viewBox="0 0 187 100" fill="none" xmlns="http://www.w3.org/2000/svg">
<path d="M79.77 99.81L71.82 93.14L63.42 86.1L62.75 85.53L45.59 71.13L40.98 67.27L31.41 78.68L27.92 82.83L25.61 85.59L13.67 99.81H0V0.00999999H13.4V79.28L19.65 71.83L21.13 70.06L39.65 48L43.81 43.03L55.9 28.63L58.16 25.93L79.91 0.00999999H97.41L86.95 12.49L85.52 14.18L71.12 31.35L61.85 42.39L56.72 48.51L49.77 56.79L49.5 57L50.33 57.61L84.65 86.41H100.84H101.41H138.77C138.87 86.41 142.15 85.76 143.6 85.47C145.51 85.1 147.4 84.57 149.24 83.88C152.44 82.68 155.46 81.04 158.2 78.99C159.6 77.95 160.91 76.81 162.12 75.61C163.31 74.43 164.42 73.15 165.44 71.81C167.41 69.21 169.02 66.37 170.23 63.36C171.04 61.32 171.66 59.25 172.07 57.2C172.56 54.83 172.81 52.37 172.81 49.9V44.55L172.48 44.95C172.37 44.15 172.23 43.36 172.07 42.6C171.16 38.14 169.44 33.95 166.96 30.15C166.51 29.45 166.01 28.74 165.44 28C163.38 25.28 160.95 22.87 158.21 20.83C157.7 20.45 157.18 20.08 156.65 19.73C152.65 17.07 148.26 15.26 143.61 14.35C143.18 14.26 142.74 14.18 142.29 14.11C140.64 13.86 136.07 13.47 134.21 13.4H133.75H133.42H123.77L118.27 19.96L114.33 24.65L109.02 30.99L99.93 41.81L99.75 42.03L99.45 42.38L87.37 56.78L86.25 58.11L85.53 58.98L81.57 63.69L71.31 55.08L80.24 44.43L81.43 43.02L86.3 37.21L89.07 33.92L89.5 33.4L98.76 22.37L100.7 20.05L105.6 14.22L115.1 2.89L117.53 0H136.32C137.14 0 137.95 0.02 138.76 0.06C140.34 0.14 141.92 0.29 143.45 0.51C146.5 0.95 149.53 1.68 152.47 2.68C154.26 3.29 156.02 4.01 157.71 4.81C160.43 6.1 163.04 7.64 165.46 9.39C167.52 10.87 169.46 12.51 171.24 14.26C171.49 14.5 171.72 14.73 171.96 14.98C173.29 16.33 174.56 17.79 175.74 19.31C177.94 22.13 179.85 25.23 181.42 28.52C182.09 29.95 182.66 31.3 183.15 32.66C183.91 34.73 184.53 36.82 184.99 38.87C185.28 40.1 185.52 41.42 185.71 42.78C186.04 45.1 186.21 47.49 186.21 49.91C186.21 50.34 186.21 50.77 186.19 51.2C186.14 53.21 185.98 55.17 185.7 57.04C185.66 57.35 185.61 57.66 185.55 57.96C184.81 62.59 183.41 67.08 181.4 71.3C181.26 71.59 180.77 72.59 180.77 72.59C178.59 76.85 175.81 80.77 172.51 84.24C172.33 84.44 172.14 84.64 171.95 84.83C171.71 85.08 171.47 85.32 171.23 85.55C168.19 88.54 164.77 91.13 161.06 93.25C159.99 93.87 158.85 94.46 157.69 95.01C154.03 96.75 150.18 98.03 146.23 98.83L145.68 98.93C144.93 99.08 144.19 99.2 143.44 99.31C141.12 99.64 138.72 99.81 136.31 99.81L80 100L79.77 99.81Z" fill="#4F46E5"/>
</svg>
