<svg width="223" height="35" viewBox="0 0 223 35" fill="none" xmlns="http://www.w3.org/2000/svg">
<path d="M70.48 35H63.04C62.432 35 61.984 34.872 61.696 34.616C61.44 34.328 61.312 33.88 61.312 33.272V2.168C61.312 1.56 61.44 1.128 61.696 0.872003C61.984 0.584002 62.432 0.440002 63.04 0.440002H70.48C71.088 0.440002 71.52 0.584002 71.776 0.872003C72.064 1.128 72.208 1.56 72.208 2.168V13.208H74.128L79.072 2.024C79.296 1.448 79.6 1.048 79.984 0.824003C80.368 0.568003 80.864 0.440002 81.472 0.440002H88.864C89.408 0.440002 89.776 0.584002 89.968 0.872003C90.16 1.128 90.144 1.512 89.92 2.024L85.024 13.208C86.816 13.304 88.24 13.944 89.296 15.128C90.384 16.28 90.928 17.816 90.928 19.736V33.272C90.928 33.88 90.784 34.328 90.496 34.616C90.24 34.872 89.808 35 89.2 35H81.808C81.2 35 80.752 34.872 80.464 34.616C80.208 34.328 80.08 33.88 80.08 33.272V23.912C80.08 23.4 79.952 23 79.696 22.712C79.44 22.424 79.056 22.28 78.544 22.28H72.208V33.272C72.208 33.88 72.064 34.328 71.776 34.616C71.52 34.872 71.088 35 70.48 35Z" fill="#131312"/>
<path d="M121.125 35H98.8525C98.2445 35 97.7965 34.872 97.5085 34.616C97.2525 34.328 97.1245 33.88 97.1245 33.272V2.168C97.1245 1.56 97.2525 1.128 97.5085 0.872003C97.7965 0.584002 98.2445 0.440002 98.8525 0.440002H121.125C121.733 0.440002 122.165 0.584002 122.421 0.872003C122.709 1.128 122.853 1.56 122.853 2.168V7.784C122.853 8.392 122.709 8.84 122.421 9.128C122.165 9.384 121.733 9.512 121.125 9.512H107.877V13.208H117.237C117.845 13.208 118.277 13.352 118.533 13.64C118.821 13.896 118.965 14.328 118.965 14.936V20.072C118.965 20.68 118.821 21.128 118.533 21.416C118.277 21.672 117.845 21.8 117.237 21.8H107.877V25.928H121.125C121.733 25.928 122.165 26.072 122.421 26.36C122.709 26.616 122.853 27.048 122.853 27.656V33.272C122.853 33.88 122.709 34.328 122.421 34.616C122.165 34.872 121.733 35 121.125 35Z" fill="#131312"/>
<path d="M148.979 35H136.499C135.891 35 135.379 34.888 134.963 34.664C134.579 34.44 134.275 34.024 134.051 33.416L129.347 21.656C129.059 20.952 128.819 20.344 128.627 19.832C128.435 19.288 128.275 18.776 128.147 18.296C128.019 17.816 127.923 17.32 127.859 16.808C127.827 16.264 127.811 15.608 127.811 14.84V2.168C127.811 1.56 127.939 1.128 128.195 0.872003C128.483 0.584002 128.931 0.440002 129.539 0.440002H137.171C137.779 0.440002 138.243 0.584002 138.563 0.872003C138.883 1.128 139.043 1.56 139.043 2.168V15.416C139.043 15.736 139.075 16.056 139.139 16.376C139.203 16.696 139.299 17.032 139.427 17.384L141.683 24.104C141.779 24.424 141.891 24.648 142.019 24.776C142.147 24.872 142.339 24.92 142.595 24.92H143.123C143.379 24.92 143.571 24.872 143.699 24.776C143.827 24.648 143.939 24.424 144.035 24.104L146.291 17.336C146.419 16.984 146.515 16.648 146.579 16.328C146.643 16.008 146.675 15.688 146.675 15.368V2.168C146.675 1.56 146.803 1.128 147.059 0.872003C147.347 0.584002 147.795 0.440002 148.403 0.440002H155.939C156.547 0.440002 156.979 0.584002 157.235 0.872003C157.523 1.128 157.667 1.56 157.667 2.168V14.84C157.667 15.608 157.635 16.264 157.571 16.808C157.539 17.32 157.459 17.816 157.331 18.296C157.203 18.776 157.043 19.288 156.851 19.832C156.659 20.344 156.419 20.952 156.131 21.656L151.427 33.416C151.203 34.024 150.883 34.44 150.467 34.664C150.083 34.888 149.587 35 148.979 35Z" fill="#131312"/>
<path d="M164.553 35C163.945 35 163.497 34.872 163.209 34.616C162.953 34.328 162.825 33.88 162.825 33.272V27.56C162.825 26.952 162.953 26.52 163.209 26.264C163.497 25.976 163.945 25.832 164.553 25.832H169.305V9.704H164.553C163.945 9.704 163.497 9.576 163.209 9.32C162.953 9.032 162.825 8.584 162.825 7.976V2.168C162.825 1.56 162.953 1.128 163.209 0.872003C163.497 0.584002 163.945 0.440002 164.553 0.440002H185.001C185.609 0.440002 186.041 0.584002 186.297 0.872003C186.585 1.128 186.729 1.56 186.729 2.168V7.976C186.729 8.584 186.585 9.032 186.297 9.32C186.041 9.576 185.609 9.704 185.001 9.704H180.345V25.832H185.001C185.609 25.832 186.041 25.976 186.297 26.264C186.585 26.52 186.729 26.952 186.729 27.56V33.272C186.729 33.88 186.585 34.328 186.297 34.616C186.041 34.872 185.609 35 185.001 35H164.553Z" fill="#131312"/>
<path d="M201.584 35H194.384C193.776 35 193.328 34.872 193.04 34.616C192.784 34.328 192.656 33.88 192.656 33.272V2.168C192.656 1.56 192.784 1.128 193.04 0.872003C193.328 0.584002 193.776 0.440002 194.384 0.440002H199.376C199.984 0.440002 200.496 0.536002 200.912 0.728002C201.36 0.920003 201.792 1.256 202.208 1.736L211.52 12.392V2.168C211.52 1.56 211.648 1.128 211.904 0.872003C212.192 0.584002 212.64 0.440002 213.248 0.440002H220.448C221.056 0.440002 221.488 0.584002 221.744 0.872003C222.032 1.128 222.176 1.56 222.176 2.168V33.272C222.176 33.88 222.032 34.328 221.744 34.616C221.488 34.872 221.056 35 220.448 35H213.248C212.64 35 212.192 34.872 211.904 34.616C211.648 34.328 211.52 33.88 211.52 33.272V27.368L203.312 17.432V33.272C203.312 33.88 203.168 34.328 202.88 34.616C202.624 34.872 202.192 35 201.584 35Z" fill="#131312"/>
<path d="M31.2566 5.18423L32.6656 6.59322L31.2566 5.18423C30.5815 5.85931 30.1942 6.72283 30.1556 7.68819C30.1147 8.71025 30.4889 9.63871 31.2022 10.352L39.3631 18.5129L31.1478 26.7282C30.454 27.422 30.0724 28.3175 30.0724 29.312C30.0724 30.3066 30.454 31.2021 31.1478 31.8959C31.8057 32.5539 32.6529 32.9565 33.6212 32.9968C34.6518 33.0398 35.5658 32.6457 36.2612 31.9504L47.142 21.0696C47.8182 20.3933 48.2174 19.5132 48.2174 18.5129C48.2174 17.5135 47.819 16.6341 47.1439 15.9582C47.1433 15.9575 47.1426 15.9568 47.142 15.9562L36.428 5.18781L36.4244 5.18423C35.7306 4.49041 34.8351 4.10881 33.8405 4.10881C32.846 4.10881 31.9504 4.4904 31.2566 5.18423ZM3.07901 21.0732L13.8474 31.7871C13.8481 31.7879 13.8489 31.7886 13.8496 31.7894C14.5431 32.4818 15.4378 32.8626 16.4313 32.8626C17.4258 32.8626 18.3213 32.481 19.0152 31.7871C19.6914 31.1109 20.0906 30.2308 20.0906 29.2304C20.0906 28.2301 19.6914 27.35 19.0152 26.6738L10.8543 18.5129L19.124 10.2432C19.8178 9.54939 20.1994 8.65387 20.1994 7.65932C20.1994 6.66477 19.8178 5.76925 19.124 5.07542L17.7098 6.48964L19.124 5.07542C18.4302 4.3816 17.5346 4 16.5401 4C15.5455 4 14.65 4.3816 13.9562 5.07542L3.07542 15.9562C2.39918 16.6324 2 17.5125 2 18.5129C2 19.5132 2.39917 20.3933 3.07542 21.0696L3.07901 21.0732Z" fill="black" stroke="black" stroke-width="4"/>
</svg>
